    <svg width="24" height="25" viewBox="0 0 24 25" fill="none" xmlns="http://www.w3.org/2000/svg">
    <path d="M6 2.82861L3 6.82861V20.8286C3 21.359 3.21071 21.8678 3.58579 22.2428C3.96086 22.6179 4.46957 22.8286 5 22.8286H19C19.5304 22.8286 20.0391 22.6179 20.4142 22.2428C20.7893 21.8678 21 21.359 21 20.8286V6.82861L18 2.82861H6Z" stroke="black" stroke-width="2" stroke-linecap="round" stroke-linejoin="round"/>
    <path d="M3 6.82861H21" stroke="black" stroke-width="2" stroke-linecap="round" stroke-linejoin="round"/>
    <path d="M16 10.8286C16 11.8895 15.5786 12.9069 14.8284 13.657C14.0783 14.4072 13.0609 14.8286 12 14.8286C10.9391 14.8286 9.92172 14.4072 9.17157 13.657C8.42143 12.9069 8 11.8895 8 10.8286" stroke="black" stroke-width="2" stroke-linecap="round" stroke-linejoin="round"/>
    </svg>
